<svg xmlns="http://www.w3.org/2000/svg" viewBox="0 0 960 600" font-family="'Segoe UI',Arial,system-ui,sans-serif">
  <rect x="0" y="0" width="960" height="600" fill="#f5f7fa"/>
  <!-- top bar -->
  <rect x="0" y="0" width="960" height="56" fill="#ffffff" stroke="#e8ebf0"/>
  <circle cx="34" cy="28" r="12" fill="#f26522"/><path d="M28 34a0 0 0 0 0 0 0" /><circle cx="29" cy="33" r="2.4" fill="#fff"/><path d="M29 27a6 6 0 0 1 6 6" fill="none" stroke="#fff" stroke-width="2"/><path d="M29 23a10 10 0 0 1 10 10" fill="none" stroke="#fff" stroke-width="2"/>
  <text x="56" y="34" font-size="16" fill="#1b2330">Lecteur de flux — Veille numérique</text>
  <!-- left nav -->
  <rect x="0" y="56" width="220" height="544" fill="#ffffff" stroke="#e8ebf0"/>
  <text x="24" y="92" font-size="12" fill="#8a93a2">MES SOURCES</text>
  <rect x="12" y="104" width="196" height="34" rx="7" fill="#eef3fb"/><text x="28" y="126" font-size="13.5" fill="#1a73e8">Toutes les sources</text>
  <g font-size="13.5" fill="#3b4453"><text x="28" y="162">🛡️ Sécurité</text><text x="28" y="196">💻 Logiciels</text><text x="28" y="230">⭐ Favoris</text></g>
  <line x1="16" y1="252" x2="204" y2="252" stroke="#eef0f3"/>
  <text x="24" y="280" font-size="12" fill="#8a93a2">CATÉGORIES</text>
  <!-- main -->
  <text x="250" y="92" font-size="20" fill="#1b2330">Ajouter des sources fiables</text>
  <text x="250" y="116" font-size="13" fill="#6b7384">Abonne-toi à des sources vérifiées pour anticiper pannes et mises à jour.</text>

  <!-- source 1 reliable -->
  <rect x="250" y="134" width="670" height="62" rx="10" fill="#fff" stroke="#e6e9ef"/>
  <rect x="266" y="150" width="30" height="30" rx="6" fill="#1f8b4c"/><text x="281" y="170" font-size="13" fill="#fff" text-anchor="middle">B</text>
  <text x="312" y="160" font-size="14" fill="#1b2330">Blog officiel de l'éditeur du logiciel</text>
  <text x="312" y="178" font-size="11.5" fill="#1e6b34">● flux RSS officiel</text>
  <rect x="806" y="150" width="98" height="30" rx="15" fill="#fff" stroke="#1a73e8"/><text x="855" y="170" font-size="12.5" fill="#1a73e8" text-anchor="middle">S'abonner</text>

  <!-- source 2 reliable -->
  <rect x="250" y="206" width="670" height="62" rx="10" fill="#fff" stroke="#e6e9ef"/>
  <rect x="266" y="222" width="30" height="30" rx="6" fill="#2a64c8"/><text x="281" y="242" font-size="13" fill="#fff" text-anchor="middle">A</text>
  <text x="312" y="232" font-size="14" fill="#1b2330">CERT-FR / ANSSI — alertes de sécurité</text>
  <text x="312" y="250" font-size="11.5" fill="#1e6b34">● flux RSS officiel</text>
  <rect x="806" y="222" width="98" height="30" rx="15" fill="#1a73e8"/><text x="855" y="242" font-size="12.5" fill="#fff" text-anchor="middle">Abonné ✓</text>

  <!-- source 3 unreliable -->
  <rect x="250" y="278" width="670" height="62" rx="10" fill="#fff" stroke="#e6e9ef"/>
  <rect x="266" y="294" width="30" height="30" rx="6" fill="#9aa0a6"/><text x="281" y="314" font-size="13" fill="#fff" text-anchor="middle">?</text>
  <text x="312" y="304" font-size="14" fill="#1b2330">Forum random « TrucsPC »</text>
  <text x="312" y="322" font-size="11.5" fill="#b3471f">▲ non vérifié</text>
  <rect x="806" y="294" width="98" height="30" rx="15" fill="#fff" stroke="#c9ced6"/><text x="855" y="314" font-size="12.5" fill="#6b7384" text-anchor="middle">S'abonner</text>

  <!-- source 4 unreliable -->
  <rect x="250" y="350" width="670" height="62" rx="10" fill="#fff" stroke="#e6e9ef"/>
  <rect x="266" y="366" width="30" height="30" rx="6" fill="#9aa0a6"/><text x="281" y="386" font-size="13" fill="#fff" text-anchor="middle">?</text>
  <text x="312" y="376" font-size="14" fill="#1b2330">Chaîne « SecretsWindows »</text>
  <text x="312" y="394" font-size="11.5" fill="#b3471f">▲ non vérifié</text>
  <rect x="806" y="366" width="98" height="30" rx="15" fill="#fff" stroke="#c9ced6"/><text x="855" y="386" font-size="12.5" fill="#6b7384" text-anchor="middle">S'abonner</text>
</svg>
